HIERARCHY
ROOT Hips
{
	OFFSET 0.000000 0.000000 0.000000 
	CHANNELS 6 Xposition Yposition Zposition Yrotation Zrotation Xrotation 
	JOINT Lumbar
	{
		OFFSET 0.000000 0.000000 0.000000 
		CHANNELS 3 Zrotation Xrotation Yrotation
		JOINT Neck
		{
			OFFSET 0.000000 0.445665 0.000000 
			CHANNELS 3 Zrotation Xrotation Yrotation
			End Site
			{
				OFFSET 0.000000 0.227535 0.000000 
			}
		}
		JOINT RightShoulder
		{
			OFFSET 0.019635 0.377685 0.194865 
			CHANNELS 3 Zrotation Xrotation Yrotation
			JOINT RightElbow
			{
				OFFSET 0.000000 -0.243375 0.000000 
				CHANNELS 2 Zrotation Yrotation
				JOINT RightWrist
				{
					OFFSET 0.000000 -0.264825 0.000000 
					CHANNELS 2 Zrotation Xrotation
					End Site
					{
						OFFSET 0.006600 -0.176220 0.000990 
					}
				}
			}
		}
		JOINT LeftShoulder
		{
			OFFSET 0.019635 0.377685 -0.194865 
			CHANNELS 3 Zrotation Xrotation Yrotation
			JOINT LeftElbow
			{
				OFFSET 0.000000 -0.243375 0.000000 
				CHANNELS 2 Zrotation Yrotation
				JOINT LeftWrist
				{
					OFFSET 0.000000 -0.264825 0.000000 
					CHANNELS 2 Zrotation Xrotation
					End Site
					{
						OFFSET 0.006600 -0.176220 -0.000990 
					}
				}
			}
		}
	}
	JOINT RightHip
	{
		OFFSET 0.052140 -0.069960 0.075570 
		CHANNELS 3 Zrotation Xrotation Yrotation
		JOINT RightKnee
		{
			OFFSET 0.000000 -0.402270 0.000000 
			CHANNELS 1 Zrotation
			JOINT RightAnkle
			{
				OFFSET 0.000000 -0.404085 0.000000 
				CHANNELS 3 Zrotation Xrotation Yrotation
				End Site
				{
					OFFSET 0.204105 -0.089430 0.008415 
				}
			}
		}
	}
	JOINT LeftHip
	{
		OFFSET 0.052140 -0.069960 -0.075570 
		CHANNELS 3 Zrotation Xrotation Yrotation
		JOINT LeftKnee
		{
			OFFSET 0.000000 -0.402270 0.000000 
			CHANNELS 1 Zrotation
			JOINT LeftAnkle
			{
				OFFSET 0.000000 -0.404085 0.000000 
				CHANNELS 3 Zrotation Xrotation Yrotation
				End Site
				{
					OFFSET 0.204105 -0.089430 -0.008415 
				}
			}
		}
	}
}
MOTION
Frames: 13
Frame Time: 0.02
-0.43846 -0.47349 0.10538 28.73316 11.04863 -10.70911 14.10812 6.22862 -11.10705 -32.41033 -9.58146 -0.82909 -50.98296 -59.51432 -37.08054 106.61332 74.67629 4.17173 -7.04771 -30.06611 20.50199 -28.37201 75.35475 -28.38627 26.30068 12.54016 97.37446 -13.03025 -14.51849 -125.10831 -8.88503 -3.30109 -2.47024 93.5866 9.73616 2.53752 -106.69154 -11.83139 0.01992 0.7377
-0.43832 -0.47301 0.1053 28.78453 10.93043 -10.76399 14.7092 6.20662 -11.34051 -32.46182 -10.16242 -0.82916 -51.20569 -59.50213 -40.09135 105.31193 74.28068 5.56338 -6.80143 -30.13523 20.32457 -28.20805 75.19196 -34.18568 23.79138 11.81412 97.43538 -13.01899 -14.54917 -125.09657 -8.88432 -3.30277 -2.47122 93.74939 9.36682 2.31912 -106.65731 -11.70999 0.07546 0.76333
-0.43814 -0.47245 0.10525 28.85103 10.78258 -10.82806 15.37522 6.18665 -11.59555 -32.51685 -10.80465 -0.82923 -50.93599 -59.3764 -42.76639 103.79904 74.00748 7.11057 -6.51463 -30.21964 20.12085 -28.01996 75.02221 -41.46638 20.63027 10.89322 97.51022 -13.01828 -14.58719 -125.08202 -8.8847 -3.30172 -2.4706 93.95579 8.89454 2.03241 -106.57945 -11.55453 0.1466 0.79619
-0.43798 -0.47193 0.1052 28.91081 10.65233 -10.8878 16.00296 6.15615 -11.83061 -32.56823 -11.38965 -0.82931 -50.89499 -59.30615 -45.58279 102.35752 73.69313 8.57335 -6.25001 -30.29253 19.93806 -27.8546 74.86918 -47.88862 17.84073 10.08668 97.57764 -13.00702 -14.61777 -125.06727 -8.88518 -3.30318 -2.47149 94.13352 8.47276 1.78956 -106.47524 -11.41598 0.20967 0.82537
-0.43779 -0.4714 0.10511 28.97076 10.5043 -10.94848 16.6689 6.16481 -12.10807 -32.62694 -12.095 -0.82938 -50.8377 -59.2082 -48.4491 101.01014 73.29958 10.10586 -5.96978 -30.38589 19.71763 -27.63898 74.66198 -55.12694 14.71859 9.16822 97.64856 -13.01905 -14.66616 -125.06061 -8.88311 -3.29953 -2.46924 94.34977 8.03503 1.49189 -106.56765 -11.26911 0.27726 0.85639
-0.43766 -0.47086 0.10511 29.03342 10.38679 -11.00932 17.26996 6.09431 -12.30243 -32.67269 -12.56899 -0.82945 -50.69132 -59.14671 -51.13114 99.4212 73.1095 11.52751 -5.71195 -30.43863 19.56855 -27.52266 74.56188 -60.98292 12.14944 8.43999 97.71665 -12.98638 -14.67845 -125.03423 -8.8866 -3.3056 -2.47298 94.4944 7.60647 1.29368 -106.23808 -11.13429 0.33863 0.88506
-0.43769 -0.47026 0.10543 29.1023 10.35617 -11.06788 17.67901 5.78728 -12.26347 -32.66941 -12.34577 -0.82949 -50.47126 -59.19713 -53.37973 97.2056 73.42143 12.57955 -5.53078 -30.39028 19.63148 -27.68429 74.79575 -62.93523 11.14436 8.25556 97.76511 -12.81517 -14.59544 -124.96928 -8.9058 -3.34126 -2.49487 94.44687 7.22508 1.37109 -104.77385 -11.0167 0.38353 0.90763
-0.43778 -0.46966 0.10584 29.17274 10.35817 -11.12642 18.01947 5.40354 -12.13997 -32.65504 -11.89441 -0.82952 -50.16768 -59.29294 -55.45409 94.75673 73.94199 13.51678 -5.37272 -30.29813 19.76546 -27.94667 75.13137 -63.4021 10.73743 8.27367 97.81212 -12.60004 -14.47434 -124.8796 -8.93078 -3.38639 -2.5226 94.32287 6.85732 1.55338 -102.88454 -10.91659 0.42089 0.92726
-0.43784 -0.46908 0.10619 29.24092 10.34823 -11.1851 18.38974 5.06663 -12.05434 -32.65424 -11.57748 -0.82955 -49.87002 -59.37985 -57.61376 92.42466 74.38839 14.52202 -5.20083 -30.2159 19.8616 -28.165 75.39584 -64.35449 10.14281 8.21964 97.86506 -12.41442 -14.36712 -124.79398 -8.95224 -3.42583 -2.54683 94.22314 6.48519 1.69843 -101.17451 -10.82497 0.45856 0.94674
-0.4379 -0.4684 0.10661 29.31661 10.32501 -11.24317 18.76961 4.68014 -11.97177 -32.61864 -11.138 -0.82959 -49.69559 -59.41194 -59.74083 90.04335 74.75022 15.46861 -5.04134 -30.17492 19.98086 -28.37711 75.76311 -66.11921 9.18751 8.07935 97.89519 -12.19264 -14.27618 -124.74732 -8.97606 -3.4711 -2.5746 94.16877 6.10076 1.79883 -99.51426 -10.66437 0.50945 0.97244
-0.43798 -0.46793 0.10692 29.37629 10.33768 -11.30289 19.11036 4.37758 -11.86247 -32.65145 -10.89233 -0.82961 -49.24462 -59.57199 -61.89258 87.70714 75.3379 16.50483 -4.86234 -30.03922 20.06841 -28.62393 75.94317 -65.86976 9.11221 8.16361 97.97359 -12.03084 -14.14023 -124.6027 -8.99815 -3.5064 -2.59641 94.00171 5.74779 2.01583 -97.65921 -10.65001 0.53144 0.98474
-0.43807 -0.46802 0.10687 29.39588 10.44096 -11.36284 19.37602 4.33501 -11.69998 -32.88824 -11.2935 -0.82963 -48.11046 -60.06318 -64.21089 85.59572 76.484 17.84251 -4.62141 -29.63732 20.05833 -28.96403 75.55899 -59.98614 11.51152 8.8689 98.17475 -12.08655 -13.90671 -124.28631 -8.9979 -3.51293 -2.6002 93.53776 5.46808 2.54798 -95.2908 -11.05305 0.46997 0.95757
-0.43818 -0.46832 0.10671 29.39837 10.57963 -11.42519 19.60101 4.3779 -11.51347 -33.19209 -11.88725 -0.82963 -46.69413 -60.68457 -66.5521 83.53103 77.85212 19.26853 -4.36077 -29.14446 20.01306 -29.33203 74.9874 -52.2015 14.74342 9.78466 98.42654 -12.19659 -13.62648 -123.85409 -8.99833 -3.50896 -2.59783 92.96378 5.22201 3.19026 -92.75613 -11.59951 0.38056 0.91752
